# Blender v2.78 (sub 0) OBJ File: ''
# www.blender.org
o Cube
v 1.217379 -1.231781 4.250744
v 0.579715 -0.273600 5.886371
v -1.313470 -0.508028 5.285628
v -0.675806 -1.466209 3.650002
v 1.313471 0.508028 3.268995
v 0.675806 1.466209 4.904621
v -1.217379 1.231780 4.303878
v -0.579715 0.273600 2.668252
vt 0.5000 0.7500
vt 0.2500 0.5000
vt 0.5000 0.5000
vt 0.2500 0.2500
vt 0.5000 0.0001
vt 0.5000 0.2500
vt 0.7500 0.2500
vt 0.7500 0.5000
vt 0.5000 0.9999
vt 0.2500 0.7500
vt 0.0001 0.5000
vt 0.2500 0.0001
vt 0.2500 0.9999
vt 0.0001 0.2500
vn -0.0480 -0.8699 0.4909
vn 0.0480 0.8699 -0.4909
vn 0.9466 0.1172 0.3004
vn -0.3188 0.4791 0.8178
vn -0.9466 -0.1172 -0.3004
vn 0.3188 -0.4791 -0.8178
s off
f 2/1/1 4/2/1 1/3/1
f 8/4/2 6/5/2 5/6/2
f 1/3/3 6/7/3 2/8/3
f 6/9/4 3/10/4 2/1/4
f 3/11/5 8/4/5 4/2/5
f 1/3/6 8/4/6 5/6/6
f 2/1/1 3/10/1 4/2/1
f 8/4/2 7/12/2 6/5/2
f 1/3/3 5/6/3 6/7/3
f 6/9/4 7/13/4 3/10/4
f 3/11/5 7/14/5 8/4/5
f 1/3/6 4/2/6 8/4/6
